<svg width="24" height="24" viewBox="0 0 24 24" fill="none" xmlns="http://www.w3.org/2000/svg">
  <path d="M11.0996 2.3999C16.8971 2.3999 21.5996 7.1024 21.5996 12.8999C21.5996 13.3987 21.1983 13.7999 20.6996 13.7999C20.2008 13.7999 19.7996 13.3987 19.7996 12.8999C19.7996 8.09615 15.9033 4.1999 11.0996 4.1999C10.6008 4.1999 10.1996 3.79865 10.1996 3.2999C10.1996 2.80115 10.6008 2.3999 11.0996 2.3999ZM10.1996 6.8999C10.1996 6.40115 10.6008 5.9999 11.0996 5.9999C14.9096 5.9999 17.9996 9.0899 17.9996 12.8999C17.9996 13.3987 17.5983 13.7999 17.0996 13.7999C16.6008 13.7999 16.1996 13.3987 16.1996 12.8999C16.1996 10.0837 13.9158 7.7999 11.0996 7.7999C10.6008 7.7999 10.1996 7.39865 10.1996 6.8999ZM3.38957 7.75115C3.71957 7.0799 4.60457 7.0049 5.13332 7.53365L9.95207 12.3524L11.1521 11.1524C11.6208 10.6837 12.3821 10.6837 12.8508 11.1524C13.3196 11.6212 13.3196 12.3824 12.8508 12.8512L11.6508 14.0512L16.4696 18.8699C16.9983 19.3987 16.9196 20.2799 16.2521 20.6137C14.9696 21.2474 13.5296 21.6037 12.0033 21.6037C6.70082 21.6037 2.40332 17.3062 2.40332 12.0037C2.40332 10.4774 2.75957 9.03365 3.39332 7.7549L3.38957 7.75115Z" fill="currentColor" />
</svg>