<svg width="24" height="24" viewBox="0 0 24 24" fill="none" xmlns="http://www.w3.org/2000/svg">
  <path d="M4.70289 4.7998C3.43164 4.7998 2.40039 5.83105 2.40039 7.1023C2.40039 7.13605 2.40039 7.16605 2.40414 7.1998H2.40039V16.7998C2.40039 18.1236 3.47664 19.1998 4.80039 19.1998H19.2004C20.5241 19.1998 21.6004 18.1236 21.6004 16.7998V7.1998H21.5966C21.5966 7.16605 21.6004 7.13605 21.6004 7.1023C21.6004 5.83105 20.5691 4.7998 19.2979 4.7998H4.70289ZM19.8004 9.61105V16.7998C19.8004 17.1298 19.5304 17.3998 19.2004 17.3998H4.80039C4.47039 17.3998 4.20039 17.1298 4.20039 16.7998V9.61105L10.0054 14.0136C11.1829 14.9098 12.8141 14.9098 13.9954 14.0136L19.8004 9.61105ZM4.20039 7.1023C4.20039 6.8248 4.42539 6.5998 4.70289 6.5998H19.2979C19.5754 6.5998 19.8004 6.8248 19.8004 7.1023C19.8004 7.2598 19.7254 7.4098 19.6016 7.50355L12.9079 12.5811C12.3716 12.9861 11.6291 12.9861 11.0929 12.5811L4.39914 7.50355C4.27539 7.4098 4.20039 7.2598 4.20039 7.1023Z" fill="currentColor" />
</svg>