<svg width="24" height="24" viewBox="0 0 24 24" fill="none" xmlns="http://www.w3.org/2000/svg">
  <path d="M14.25 3C13.6277 3 13.125 3.50273 13.125 4.125C13.125 4.74727 13.6277 5.25 14.25 5.25H17.1574L10.077 12.3305C9.6375 12.7699 9.6375 13.4836 10.077 13.923C10.5164 14.3625 11.2301 14.3625 11.6695 13.923L18.75 6.84258V9.75C18.75 10.3723 19.2527 10.875 19.875 10.875C20.4973 10.875 21 10.3723 21 9.75V4.125C21 3.50273 20.4973 3 19.875 3H14.25ZM5.8125 6.375C4.25859 6.375 3 7.63359 3 9.1875V18.1875C3 19.7414 4.25859 21 5.8125 21H14.8125C16.3664 21 17.625 19.7414 17.625 18.1875V15.375C17.625 14.7527 17.1223 14.25 16.5 14.25C15.8777 14.25 15.375 14.7527 15.375 15.375V18.1875C15.375 18.4969 15.1219 18.75 14.8125 18.75H5.8125C5.50312 18.75 5.25 18.4969 5.25 18.1875V9.1875C5.25 8.87812 5.50312 8.625 5.8125 8.625H8.625C9.24727 8.625 9.75 8.12227 9.75 7.5C9.75 6.87773 9.24727 6.375 8.625 6.375H5.8125Z" fill="currentColor" />
</svg>