<svg width="24" height="24" viewBox="0 0 24 24" fill="none" xmlns="http://www.w3.org/2000/svg">
  <path d="M19.8381 3.05059C20.1555 2.93726 20.5052 3.01821 20.7448 3.2546C20.9844 3.49099 21.0621 3.84396 20.9488 4.1613L15.185 20.252C15.0231 20.7021 14.5989 21 14.1229 21C13.6631 21 13.2486 20.7215 13.077 20.2973L10.9981 15.1809C10.8524 14.8247 10.9172 14.4167 11.1665 14.1253L14.2265 10.4855C14.3916 10.288 14.3787 9.9998 14.1974 9.81846C14.016 9.63712 13.7246 9.62416 13.5303 9.78931L9.89068 12.8429C9.59601 13.089 9.19125 13.1538 8.83506 13.0113L3.70267 10.9227C3.27848 10.7511 3 10.3366 3 9.87674C3 9.40073 3.29791 8.97652 3.748 8.81461L19.8381 3.05059Z" fill="currentColor" />
</svg>