<svg width="24" height="24" viewBox="0 0 24 24" fill="none" xmlns="http://www.w3.org/2000/svg">
  <mask id="path-1-inside-1_746_271" fill="none">
    <path d="M12.2998 2C14.951 2 17.0995 4.14864 17.0996 6.7998V9H18C19.6545 9 20.9998 10.0598 21 11.3633V19.6367C20.9998 20.9402 19.6545 22 18 22H6C4.34546 22 3.00025 20.9402 3 19.6367V11.3633C3.00024 10.0598 4.34546 9 6 9H7.5V6.7998C7.50011 4.14871 9.64871 2.00011 12.2998 2ZM12 12C11.1716 12 10.5 12.6716 10.5 13.5C10.5 14.1312 10.8903 14.6702 11.4424 14.8916L10.8154 18.1553C10.7561 18.4637 10.9926 18.75 11.3066 18.75H12.6934C13.0074 18.75 13.2439 18.4637 13.1846 18.1553L12.5566 14.8916C13.1091 14.6704 13.5 14.1315 13.5 13.5C13.5 12.6716 12.8284 12 12 12ZM12.2998 4.40039C10.9762 4.4005 9.9005 5.47621 9.90039 6.7998V9H14.7002V6.7998C14.7001 5.47614 13.6235 4.40039 12.2998 4.40039Z" />
  </mask>
  <path d="M12.2998 2C14.951 2 17.0995 4.14864 17.0996 6.7998V9H18C19.6545 9 20.9998 10.0598 21 11.3633V19.6367C20.9998 20.9402 19.6545 22 18 22H6C4.34546 22 3.00025 20.9402 3 19.6367V11.3633C3.00024 10.0598 4.34546 9 6 9H7.5V6.7998C7.50011 4.14871 9.64871 2.00011 12.2998 2ZM12 12C11.1716 12 10.5 12.6716 10.5 13.5C10.5 14.1312 10.8903 14.6702 11.4424 14.8916L10.8154 18.1553C10.7561 18.4637 10.9926 18.75 11.3066 18.75H12.6934C13.0074 18.75 13.2439 18.4637 13.1846 18.1553L12.5566 14.8916C13.1091 14.6704 13.5 14.1315 13.5 13.5C13.5 12.6716 12.8284 12 12 12ZM12.2998 4.40039C10.9762 4.4005 9.9005 5.47621 9.90039 6.7998V9H14.7002V6.7998C14.7001 5.47614 13.6235 4.40039 12.2998 4.40039Z" fill="currentColor" />
  <path d="M12.2998 2V1H12.2998L12.2998 2ZM17.0996 6.7998H18.0996V6.79977L17.0996 6.7998ZM17.0996 9H16.0996V10H17.0996V9ZM18 9V8V8V9ZM21 11.3633H22V11.3631L21 11.3633ZM21 19.6367L22 19.6369V19.6367H21ZM18 22V23V23V22ZM3 19.6367H2V19.6369L3 19.6367ZM3 11.3633L2 11.3631V11.3633H3ZM7.5 9V10H8.5V9H7.5ZM7.5 6.7998L6.5 6.79977V6.7998H7.5ZM11.4424 14.8916L12.4244 15.0803L12.58 14.2704L11.8146 13.9635L11.4424 14.8916ZM10.8154 18.1553L11.7974 18.3443L11.7975 18.3439L10.8154 18.1553ZM13.1846 18.1553L12.2026 18.3442L12.2026 18.3443L13.1846 18.1553ZM12.5566 14.8916L12.185 13.9632L11.4187 14.27L11.5747 15.0805L12.5566 14.8916ZM12.2998 4.40039V3.40039H12.2997L12.2998 4.40039ZM9.90039 6.7998L8.90039 6.79973V6.7998H9.90039ZM9.90039 9H8.90039V10H9.90039V9ZM14.7002 9V10H15.7002V9H14.7002ZM14.7002 6.7998H15.7002V6.79973L14.7002 6.7998ZM12.2998 2V3C14.3987 3 16.0995 4.7009 16.0996 6.79984L17.0996 6.7998L18.0996 6.79977C18.0995 3.59639 15.5033 1 12.2998 1V2ZM17.0996 6.7998H16.0996V9H17.0996H18.0996V6.7998H17.0996ZM17.0996 9V10H18V9V8H17.0996V9ZM18 9V10C19.3375 10 19.9999 10.8211 20 11.3635L21 11.3633L22 11.3631C21.9996 9.29839 19.9715 8 18 8V9ZM21 11.3633H20V19.6367H21H22V11.3633H21ZM21 19.6367L20 19.6365C19.9999 20.1789 19.3375 21 18 21V22V23C19.9715 23 21.9996 21.7016 22 19.6369L21 19.6367ZM18 22V21H6V22V23H18V22ZM6 22V21C4.66246 21 4.0001 20.1789 4 19.6365L3 19.6367L2 19.6369C2.00039 21.7016 4.02847 23 6 23V22ZM3 19.6367H4V11.3633H3H2V19.6367H3ZM3 11.3633L4 11.3635C4.0001 10.8211 4.66246 10 6 10V9V8C4.02847 8 2.00039 9.29839 2 11.3631L3 11.3633ZM6 9V10H7.5V9V8H6V9ZM7.5 9H8.5V6.7998H7.5H6.5V9H7.5ZM7.5 6.7998L8.5 6.79984C8.50008 4.701 10.201 3.00008 12.2998 3L12.2998 2L12.2998 1C9.09642 1.00013 6.50013 3.59642 6.5 6.79977L7.5 6.7998ZM12 12V11C10.6193 11 9.5 12.1193 9.5 13.5H10.5H11.5C11.5 13.2239 11.7239 13 12 13V12ZM10.5 13.5H9.5C9.5 14.555 10.1532 15.452 11.0701 15.8197L11.4424 14.8916L11.8146 13.9635C11.6275 13.8884 11.5 13.7074 11.5 13.5H10.5ZM11.4424 14.8916L10.4603 14.703L9.83339 17.9666L10.8154 18.1553L11.7975 18.3439L12.4244 15.0803L11.4424 14.8916ZM10.8154 18.1553L9.83345 17.9663C9.65539 18.8915 10.3646 19.75 11.3066 19.75V18.75V17.75C11.6206 17.75 11.8568 18.0358 11.7974 18.3443L10.8154 18.1553ZM11.3066 18.75V19.75H12.6934V18.75V17.75H11.3066V18.75ZM12.6934 18.75V19.75C13.6354 19.75 14.3446 18.8915 14.1666 17.9663L13.1846 18.1553L12.2026 18.3443C12.1432 18.0358 12.3794 17.75 12.6934 17.75V18.75ZM13.1846 18.1553L14.1666 17.9663L13.5386 14.7027L12.5566 14.8916L11.5747 15.0805L12.2026 18.3442L13.1846 18.1553ZM12.5566 14.8916L12.9283 15.82C13.8456 15.4527 14.5 14.5559 14.5 13.5H13.5H12.5C12.5 13.7071 12.3727 13.8881 12.185 13.9632L12.5566 14.8916ZM13.5 13.5H14.5C14.5 12.1193 13.3807 11 12 11V12V13C12.2761 13 12.5 13.2239 12.5 13.5H13.5ZM12.2998 4.40039L12.2997 3.40039C10.4239 3.40054 8.90054 4.92391 8.90039 6.79973L9.90039 6.7998L10.9004 6.79988C10.9005 6.02851 11.5285 5.40045 12.2999 5.40039L12.2998 4.40039ZM9.90039 6.7998H8.90039V9H9.90039H10.9004V6.7998H9.90039ZM9.90039 9V10H14.7002V9V8H9.90039V9ZM14.7002 9H15.7002V6.7998H14.7002H13.7002V9H14.7002ZM14.7002 6.7998L15.7002 6.79973C15.7 4.92339 14.1753 3.40039 12.2998 3.40039V4.40039V5.40039C13.0717 5.40039 13.7001 6.0289 13.7002 6.79988L14.7002 6.7998Z" fill="currentColor" mask="url(#path-1-inside-1_746_271)" />
</svg>