<svg width="32" height="32" viewBox="0 0 32 32" fill="none" xmlns="http://www.w3.org/2000/svg">
<path d="M5.9013 27.201L3.6543 2H28.3443L26.0943 27.197L15.9843 30L5.9013 27.201Z" fill="#E44F26"/>
<path d="M16 27.858L24.17 25.593L26.092 4.061H16V27.858Z" fill="#F1662A"/>
<path d="M16 13.407H11.91L11.628 10.242H16V7.151H15.989H8.25L8.324 7.981L9.083 16.498H16V13.407Z" fill="#EBEBEB"/>
<path d="M15.9997 21.434L15.9857 21.438L12.5437 20.509L12.3237 18.044H10.6507H9.2207L9.6537 22.896L15.9857 24.654L15.9997 24.65V21.434Z" fill="#EBEBEB"/>
<path d="M15.9883 13.407V16.498H19.7943L19.4363 20.507L15.9883 21.437V24.653L22.3253 22.896L22.3713 22.374L23.0973 14.237L23.1733 13.407H22.3403H15.9883Z" fill="white"/>
<path d="M15.9883 7.151V9.071V10.235V10.242H23.4443H23.4543L23.5163 9.548L23.6573 7.981L23.7313 7.151H15.9883Z" fill="white"/>
</svg>
