<svg class="icon icon-signal" width="24" height="24" viewBox="0 0 24 24" fill="none" xmlns="http://www.w3.org/2000/svg">
  <path d="M3.38859 7.75122C3.71859 7.07997 4.60359 7.00497 5.13234 7.53372L9.95109 12.3525L11.1511 11.1525C11.6198 10.6838 12.3811 10.6838 12.8498 11.1525C13.3186 11.6213 13.3186 12.3825 12.8498 12.8513L11.6498 14.0513L16.4686 18.87C16.9973 19.3988 16.9186 20.28 16.2511 20.6138C14.9686 21.2475 13.5286 21.6038 12.0023 21.6038C6.69984 21.6038 2.40234 17.3063 2.40234 12.0038C2.40234 10.4775 2.75859 9.03372 3.39234 7.75497L3.38859 7.75122Z" fill="currentColor" />
  <path d="M10.1992 6.9C10.1992 6.40125 10.6004 6 11.0992 6C14.9092 6 17.9992 9.09 17.9992 12.9C17.9992 13.3988 17.5979 13.8 17.0992 13.8C16.6004 13.8 16.1992 13.3988 16.1992 12.9C16.1992 10.0838 13.9154 7.8 11.0992 7.8C10.6004 7.8 10.1992 7.39875 10.1992 6.9Z" fill="currentColor" />
  <path d="M11.0992 2.3999C16.8967 2.3999 21.5992 7.1024 21.5992 12.8999C21.5992 13.3987 21.1979 13.7999 20.6992 13.7999C20.2004 13.7999 19.7992 13.3987 19.7992 12.8999C19.7992 8.09615 15.9029 4.1999 11.0992 4.1999C10.6004 4.1999 10.1992 3.79865 10.1992 3.2999C10.1992 2.80115 10.6004 2.3999 11.0992 2.3999Z" fill="currentColor" />
</svg>