<svg xmlns="http://www.w3.org/2000/svg" version="1.1" xmlns:xlink="http://www.w3.org/1999/xlink" width="300" height="300"><svg xmlns="http://www.w3.org/2000/svg" version="1.1" xmlns:xlink="http://www.w3.org/1999/xlink" width="300" height="300"><svg width="300" height="300" viewBox="0 0 300 300" fill="none" xmlns="http://www.w3.org/2000/svg">
<g clip-path="url(#clip0_769_374)">
<circle cx="150" cy="150" r="150" fill="black"></circle>
<path fill-rule="evenodd" clip-rule="evenodd" d="M46.6036 96.4048C127.853 34.7802 187.877 63.2819 187.877 63.2819C68.5368 88.9919 21.4453 178.739 21.4453 178.739C155.945 62.6507 240.129 70.8529 240.129 70.8529C114.084 -1.67574 46.6036 96.4048 46.6036 96.4048Z" fill="white"></path>
<path fill-rule="evenodd" clip-rule="evenodd" d="M177.233 87.8875L187.877 100.19C218.679 90.5685 237.449 99.1275 240.129 103.976C256.682 133.914 245.581 220.491 229.485 219.432C180.799 216.231 131.271 197.351 98.8554 178.739C86.4505 171.616 69.8267 147.509 69.8267 147.509C69.8267 147.509 82.011 180.463 91.1144 187.256C127.771 214.61 220.422 234.79 233.355 230.789C238.597 229.167 243.039 225.698 246.718 220.853C270.893 189.009 262.086 97.7022 230.453 80.3165C230.453 80.3165 204.649 73.2188 177.233 87.8875Z" fill="white"></path>
<path fill-rule="evenodd" clip-rule="evenodd" d="M255.611 216.593C247.225 241.357 233.378 241.259 227.55 241.199C162.891 240.53 78.5354 197.666 78.5354 197.666L131.755 227.95L61.1182 213.754C111.435 233.628 201.198 259.73 243.032 255.394C258.859 253.754 255.611 216.593 255.611 216.593Z" fill="white"></path>
<path fill-rule="evenodd" clip-rule="evenodd" d="M48.5391 169.275C57.2477 155.08 71.1186 161.662 74.665 172.114C78.9709 184.806 66.7624 200.978 51.4419 188.202C51.4419 188.202 69.0605 191.288 65.9563 174.953C63.904 164.153 48.5391 169.275 48.5391 169.275Z" fill="white"></path>
</g>
<defs>
<clipPath id="clip0_769_374">
<rect width="300" height="300" fill="white"></rect>
</clipPath>
</defs>
</svg></svg><style>@media (prefers-color-scheme: light) { :root { filter: none; } }
@media (prefers-color-scheme: dark) { :root { filter: none; } }
</style></svg>