<?xml version="1.0" encoding="UTF-8"?>
<svg id="Layer_1" xmlns="http://www.w3.org/2000/svg" version="1.1" viewBox="0 0 1366 90">
  <!-- Generator: Adobe Illustrator 30.0.0, SVG Export Plug-In . SVG Version: 2.1.1 Build 123)  -->
  <defs>
    <style>
      .st0 {
        fill: #fff;
      }
    </style>
  </defs>
  <path class="st0" d="M271.1,90h-88.85v-6.49h88.85c6.48,0,11.75-5.2,11.75-11.6v-12.06c0-6.4-5.27-11.6-11.75-11.6h-73.33c-10.11,0-18.33-8.12-18.33-18.09v-12.06C179.43,8.12,187.65,0,197.76,0h87.91v6.49h-87.91c-6.48,0-11.75,5.2-11.75,11.6v12.06c0,6.4,5.27,11.6,11.75,11.6h73.33c10.11,0,18.33,8.12,18.33,18.09v12.06c0,9.98-8.22,18.09-18.33,18.09Z"/>
  <polygon class="st0" points="468.86 0 358.86 0 358.86 6.77 409.86 6.77 409.86 90 416.86 90 416.86 6.77 468.86 6.77 468.86 0"/>
  <path class="st0" d="M648.29,90h-91.18c-10.38,0-18.82-8.47-18.82-18.87V0h6.75v71.13c0,6.67,5.41,12.1,12.06,12.1h91.18v6.77Z"/>
  <path class="st0" d="M1001.02,90c-1.38,0-2.73-.5-3.86-1.47L903.72,7.54v82.17h-6.58V6.48c0-2.53,1.34-4.77,3.49-5.85,2.15-1.08,4.64-.76,6.48.84l93.44,80.99V.07h6.58v83.45c0,2.53-1.34,4.77-3.49,5.85-.85.42-1.74.63-2.63.63Z"/>
  <path class="st0" d="M91.52,0H18.33C8.22,0,0,8.38,0,18.67v71.33h6.58v-40.21h96.84v40.21h6.58V18.82C110,8.44,101.71,0,91.52,0ZM6.58,43.09v-24.41c0-6.6,5.27-11.97,11.75-11.97h73.18c6.56,0,11.9,5.44,11.9,12.12v24.26H6.58Z"/>
  <path class="st0" d="M1168.24,90h-73.33c-10.11,0-18.33-8.12-18.33-18.09V18.09C1076.57,8.12,1084.8,0,1094.9,0h73.33C1178.35,0,1186.57,8.12,1186.57,18.09v53.81c0,9.98-8.22,18.09-18.33,18.09ZM1094.9,6.49c-6.48,0-11.75,5.2-11.75,11.6v53.81c0,6.4,5.27,11.6,11.75,11.6h73.33c6.48,0,11.75-5.2,11.75-11.6V18.09c0-6.4-5.27-11.6-11.75-11.6h-73.33Z"/>
  <polygon class="st0" points="1366 0 1356 0 1311 40.73 1266 0 1256 0 1305.69 45 1256 90 1266 90 1311 49.27 1356 90 1366 90 1316.31 45 1366 0"/>
  <path class="st0" d="M809.23,0h-73.18C725.94,0,717.71,8.38,717.71,18.67v71.33h6.58v-40.21h96.84v40.21h6.58V18.82C827.71,8.44,819.42,0,809.23,0ZM724.3,43.09v-24.41c0-6.6,5.27-11.97,11.75-11.97h73.18c6.56,0,11.9,5.44,11.9,12.12v24.26h-96.84Z"/>
</svg>