<svg width="208" height="32" viewBox="0 0 208 32" fill="none" xmlns="http://www.w3.org/2000/svg">
<path fill-rule="evenodd" clip-rule="evenodd" d="M4.97115 10.2832C13.6378 3.70989 20.0403 6.75007 20.0403 6.75007C7.31069 9.49247 2.2876 19.0655 2.2876 19.0655C16.6343 6.68274 25.6138 7.55764 25.6138 7.55764C12.169 -0.178748 4.97115 10.2832 4.97115 10.2832Z" fill="white"/>
<path fill-rule="evenodd" clip-rule="evenodd" d="M18.9049 9.37466L20.0403 10.687C23.3259 9.66064 25.3279 10.5736 25.6138 11.0907C27.3795 14.2842 26.1954 23.519 24.4785 23.4061C19.2853 23.0646 14.0023 21.0508 10.5446 19.0655C9.22145 18.3057 7.44824 15.7343 7.44824 15.7343C7.44824 15.7343 8.74791 19.2494 9.71894 19.974C13.629 22.8917 23.5118 25.0443 24.8913 24.6175C25.4504 24.4445 25.9243 24.0745 26.3167 23.5577C28.8953 20.1609 27.9559 10.4216 24.5817 8.5671C24.5817 8.5671 21.8293 7.81 18.9049 9.37466Z" fill="white"/>
<path fill-rule="evenodd" clip-rule="evenodd" d="M27.2654 23.1033C26.3709 25.7447 24.8939 25.7343 24.2722 25.7279C17.3753 25.6565 8.37737 21.0844 8.37737 21.0844L14.0541 24.3146L6.51953 22.8005C11.8866 24.9203 21.4613 27.7045 25.9237 27.2421C27.6119 27.0671 27.2654 23.1033 27.2654 23.1033Z" fill="white"/>
<path fill-rule="evenodd" clip-rule="evenodd" d="M5.17773 18.056C6.10666 16.5418 7.58622 17.244 7.9645 18.3588C8.4238 19.7126 7.12155 21.4377 5.48737 20.0749C5.48737 20.0749 7.36668 20.4041 7.03558 18.6617C6.81666 17.5097 5.17773 18.056 5.17773 18.056Z" fill="white"/>
<g clip-path="url(#clip0_544_192)">
<path d="M79.7542 21.5363H69.3472V20.7379H79.7542C80.5132 20.7379 81.1305 20.0981 81.1305 19.3107V17.827C81.1305 17.0396 80.5132 16.3998 79.7542 16.3998H71.1651C69.9809 16.3998 69.0181 15.4008 69.0181 14.1742V12.6905C69.0169 11.4627 69.9797 10.4637 71.1639 10.4637H81.4608V11.2621H71.1639C70.4049 11.2621 69.7876 11.9019 69.7876 12.6893V14.173C69.7876 14.9604 70.4049 15.6002 71.1639 15.6002H79.7531C80.9372 15.6002 81.9001 16.5992 81.9001 17.8258V19.3095C81.9001 20.5373 80.9372 21.5351 79.7531 21.5351L79.7542 21.5363Z" fill="white"/>
<path d="M102.918 10.4637H90.0332V11.2966H96.0068V21.5363H96.8268V11.2966H102.918V10.4637Z" fill="white"/>
<path d="M123.935 21.5363H113.255C112.039 21.5363 111.05 20.4943 111.05 19.2148V10.4637H111.841V19.2148C111.841 20.0354 112.475 20.7034 113.254 20.7034H123.933V21.5363H123.935Z" fill="white"/>
<path d="M165.25 21.5363C165.088 21.5363 164.93 21.4748 164.798 21.3555L153.853 11.3913V21.5006H153.083V11.2609C153.083 10.9496 153.239 10.674 153.491 10.5412C153.743 10.4083 154.035 10.4477 154.25 10.6445L165.195 20.6087V10.4723H165.966V20.7391C165.966 21.0503 165.809 21.3259 165.557 21.4588C165.457 21.5105 165.353 21.5363 165.249 21.5363H165.25Z" fill="white"/>
<path d="M58.7198 10.4637H50.147C48.9628 10.4637 48 11.4947 48 12.7606V21.5363H48.7707V16.5893H60.1136V21.5363H60.8843V12.7791C60.8843 11.502 59.9133 10.4637 58.7198 10.4637ZM48.7707 15.765V12.7619C48.7707 11.9499 49.388 11.2892 50.147 11.2892H58.7186C59.487 11.2892 60.1124 11.9585 60.1124 12.7803V15.765H48.7707Z" fill="white"/>
<path d="M184.836 21.5363H176.247C175.063 21.5363 174.1 20.5373 174.1 19.3107V12.6893C174.099 11.4627 175.063 10.4637 176.246 10.4637H184.835C186.02 10.4637 186.983 11.4627 186.983 12.6893V19.3095C186.983 20.5373 186.02 21.5351 184.836 21.5351V21.5363ZM176.246 11.2621C175.487 11.2621 174.87 11.9019 174.87 12.6893V19.3095C174.87 20.0969 175.487 20.7366 176.246 20.7366H184.835C185.594 20.7366 186.211 20.0969 186.211 19.3095V12.6893C186.211 11.9019 185.594 11.2621 184.835 11.2621H176.246Z" fill="white"/>
<path d="M208 10.4637H206.829L201.558 15.4747L196.287 10.4637H195.116L200.936 16L195.116 21.5363H196.287L201.558 16.5253L206.829 21.5363H208L202.18 16L208 10.4637Z" fill="white"/>
<path d="M142.785 10.4637H134.214C133.029 10.4637 132.065 11.4947 132.065 12.7606V21.5363H132.836V16.5893H144.179V21.5363H144.95V12.7791C144.95 11.502 143.979 10.4637 142.785 10.4637ZM132.837 15.765V12.7619C132.837 11.9499 133.455 11.2892 134.214 11.2892H142.785C143.554 11.2892 144.179 11.9585 144.179 12.7803V15.765H132.836H132.837Z" fill="white"/>
</g>
<defs>
<clipPath id="clip0_544_192">
<rect width="160" height="11.0727" fill="white" transform="translate(48 10.4637)"/>
</clipPath>
</defs>
</svg>
